<mxfile host="drawio-plugin" modified="2024-02-14T13:09:21.395Z" agent="5.0 (Windows NT 10.0; Win64; x64) AppleWebKit/537.36 (KHTML, like Gecko) Chrome/111.0.0.0 Safari/537.36" etag="RVQR0YFJvMPd9ehHal5v" version="20.5.3" type="embed"><diagram id="L4Vim6vMtzfmHxvgQ2MA" name="Page-1"><mxGraphModel dx="1101" dy="563" grid="1" gridSize="10" guides="1" tooltips="1" connect="1" arrows="1" fold="1" page="1" pageScale="1" pageWidth="850" pageHeight="1100" math="0" shadow="0"><root><mxCell id="0"/><mxCell id="1" parent="0"/><mxCell id="2" value="Django User" style="swimlane;fontStyle=0;childLayout=stackLayout;horizontal=1;startSize=26;fillColor=none;horizontalStack=0;resizeParent=1;resizeParentMax=0;resizeLast=0;collapsible=1;marginBottom=0;" parent="1" vertex="1"><mxGeometry x="330" y="387" width="140" height="20" as="geometry"/></mxCell><mxCell id="13" value="Subscribing" style="swimlane;fontStyle=0;childLayout=stackLayout;horizontal=1;startSize=26;fillColor=none;horizontalStack=0;resizeParent=1;resizeParentMax=0;resizeLast=0;collapsible=1;marginBottom=0;" parent="1" vertex="1"><mxGeometry x="330" y="130" width="140" height="142" as="geometry"/></mxCell><mxCell id="14" value="PK: int" style="text;strokeColor=none;fillColor=none;align=left;verticalAlign=top;spacingLeft=4;spacingRight=4;overflow=hidden;rotatable=0;points=[[0,0.5],[1,0.5]];portConstraint=eastwest;" parent="13" vertex="1"><mxGeometry y="26" width="140" height="26" as="geometry"/></mxCell><mxCell id="15" value="user_id: int&#10;city_Redis_name: str&#10;" style="text;strokeColor=none;fillColor=none;align=left;verticalAlign=top;spacingLeft=4;spacingRight=4;overflow=hidden;rotatable=0;points=[[0,0.5],[1,0.5]];portConstraint=eastwest;" parent="13" vertex="1"><mxGeometry y="52" width="140" height="58" as="geometry"/></mxCell><mxCell id="16" value="notification: int&#10;" style="text;strokeColor=none;fillColor=none;align=left;verticalAlign=top;spacingLeft=4;spacingRight=4;overflow=hidden;rotatable=0;points=[[0,0.5],[1,0.5]];portConstraint=eastwest;" parent="13" vertex="1"><mxGeometry y="110" width="140" height="32" as="geometry"/></mxCell><mxCell id="18" value="" style="endArrow=block;startArrow=block;endFill=1;startFill=1;html=1;rounded=0;entryX=0.5;entryY=0;entryDx=0;entryDy=0;exitX=0.493;exitY=0.969;exitDx=0;exitDy=0;exitPerimeter=0;" parent="1" source="16" target="2" edge="1"><mxGeometry width="160" relative="1" as="geometry"><mxPoint x="240" y="397" as="sourcePoint"/><mxPoint x="410" y="500" as="targetPoint"/></mxGeometry></mxCell></root></mxGraphModel></diagram></mxfile>